<svg width="140" height="390" viewBox="0 0 140 390" fill="none" xmlns="http://www.w3.org/2000/svg">
<circle cx="40" cy="40" r="19.25" stroke="#3F88C5" stroke-width="1.5"/>
<path d="M31.7119 33.4844H48.2705C48.7188 33.4844 49.0791 33.1152 49.0791 32.6758C49.0791 32.2188 48.7188 31.8672 48.2705 31.8672H31.7119C31.2637 31.8672 30.9121 32.2275 30.9121 32.6758C30.9121 33.1152 31.2637 33.4844 31.7119 33.4844ZM31.7119 38.0898H48.2705C48.7188 38.0898 49.0791 37.7207 49.0791 37.2812C49.0791 36.8242 48.7188 36.4727 48.2705 36.4727H31.7119C31.2637 36.4727 30.9121 36.833 30.9121 37.2812C30.9121 37.7207 31.2637 38.0898 31.7119 38.0898ZM31.7119 42.6953H48.2705C48.7188 42.6953 49.0791 42.3262 49.0791 41.8867C49.0791 41.4385 48.7188 41.0781 48.2705 41.0781H31.7119C31.2637 41.0781 30.9121 41.4385 30.9121 41.8867C30.9121 42.3262 31.2637 42.6953 31.7119 42.6953ZM31.7119 47.3008H40.9404C41.3887 47.3008 41.749 46.9316 41.749 46.4922C41.749 46.0439 41.3887 45.6836 40.9404 45.6836H31.7119C31.2637 45.6836 30.9121 46.0439 30.9121 46.4922C30.9121 46.9316 31.2637 47.3008 31.7119 47.3008Z" fill="#3F88C5"/>
<circle cx="100" cy="40" r="19.25" stroke="#F49D37" stroke-width="1.5"/>
<path d="M91.7119 33.4844H108.271C108.719 33.4844 109.079 33.1152 109.079 32.6758C109.079 32.2188 108.719 31.8672 108.271 31.8672H91.7119C91.2637 31.8672 90.9121 32.2275 90.9121 32.6758C90.9121 33.1152 91.2637 33.4844 91.7119 33.4844ZM91.7119 38.0898H108.271C108.719 38.0898 109.079 37.7207 109.079 37.2812C109.079 36.8242 108.719 36.4727 108.271 36.4727H91.7119C91.2637 36.4727 90.9121 36.833 90.9121 37.2812C90.9121 37.7207 91.2637 38.0898 91.7119 38.0898ZM91.7119 42.6953H108.271C108.719 42.6953 109.079 42.3262 109.079 41.8867C109.079 41.4385 108.719 41.0781 108.271 41.0781H91.7119C91.2637 41.0781 90.9121 41.4385 90.9121 41.8867C90.9121 42.3262 91.2637 42.6953 91.7119 42.6953ZM91.7119 47.3008H100.94C101.389 47.3008 101.749 46.9316 101.749 46.4922C101.749 46.0439 101.389 45.6836 100.94 45.6836H91.7119C91.2637 45.6836 90.9121 46.0439 90.9121 46.4922C90.9121 46.9316 91.2637 47.3008 91.7119 47.3008Z" fill="#F49D37"/>
<circle cx="40" cy="100" r="19.25" stroke="#3F88C5" stroke-width="1.5"/>
<path d="M40 108.382C40.2109 108.382 40.4131 108.364 40.6328 108.347L41.125 109.278C41.2305 109.516 41.4678 109.63 41.7402 109.595C41.9951 109.551 42.1709 109.357 42.2061 109.094L42.3555 108.048C42.7686 107.942 43.1729 107.784 43.5596 107.617L44.333 108.312C44.5176 108.496 44.7725 108.523 45.0273 108.391C45.2471 108.259 45.335 108.022 45.291 107.758L45.0713 106.738C45.4141 106.492 45.748 106.22 46.0645 105.921L47.0137 106.316C47.2686 106.422 47.5059 106.36 47.6992 106.141C47.8574 105.956 47.8838 105.692 47.7432 105.464L47.1895 104.576C47.4268 104.233 47.6289 103.856 47.8135 103.46L48.8682 103.513C49.123 103.53 49.3516 103.381 49.4395 103.135C49.5273 102.889 49.4395 102.634 49.2373 102.476L48.4199 101.825C48.5254 101.421 48.6045 100.999 48.6396 100.56L49.6328 100.243C49.8877 100.155 50.0459 99.9532 50.0459 99.6895C50.0459 99.4258 49.8877 99.2237 49.6328 99.1358L48.6396 98.8194C48.6045 98.3799 48.5166 97.9668 48.4199 97.5538L49.2373 96.9034C49.4395 96.754 49.5186 96.5079 49.4395 96.2618C49.3516 96.0069 49.123 95.8575 48.8682 95.8751L47.8135 95.9102C47.6289 95.5235 47.4268 95.1543 47.1895 94.8028L47.7432 93.9063C47.875 93.6954 47.8574 93.4317 47.6992 93.2471C47.5059 93.0274 47.2686 92.9659 47.0137 93.0713L46.0557 93.4581C45.748 93.168 45.4141 92.8868 45.0713 92.6495L45.291 91.6299C45.335 91.3575 45.2471 91.1202 45.0186 90.9971C44.7725 90.8653 44.5176 90.8829 44.333 91.0762L43.5596 91.7618C43.1729 91.586 42.7686 91.4454 42.3555 91.3311L42.2061 90.3028C42.1709 90.0391 41.9951 89.8458 41.7402 89.793C41.4678 89.7579 41.2393 89.8721 41.125 90.0918L40.6328 91.0323C40.4131 91.0147 40.2109 91.0059 40 91.0059C39.7715 91.0059 39.5693 91.0147 39.3496 91.0323L38.8574 90.0918C38.752 89.8721 38.5146 89.7579 38.2422 89.8018C37.9873 89.8458 37.8115 90.0391 37.7764 90.3028L37.627 91.3311C37.2227 91.4454 36.8184 91.586 36.4229 91.7618L35.6582 91.0762C35.4648 90.8917 35.21 90.8653 34.9639 90.9971C34.7441 91.1202 34.6475 91.3575 34.6914 91.6299L34.9111 92.6495C34.5684 92.8868 34.2344 93.168 33.9268 93.4581L32.9688 93.0713C32.7227 92.9659 32.4766 93.0274 32.292 93.2471C32.125 93.4317 32.1074 93.6954 32.2393 93.9063L32.8018 94.8028C32.5645 95.1543 32.3623 95.5235 32.1689 95.9102L31.123 95.8751C30.8594 95.8575 30.6309 96.0069 30.5518 96.2618C30.4639 96.5079 30.5342 96.754 30.7451 96.9034L31.5713 97.5538C31.4658 97.9668 31.3779 98.3799 31.3516 98.8194L30.3584 99.1358C30.0947 99.2237 29.9453 99.417 29.9453 99.6895C29.9453 99.9532 30.0947 100.155 30.3584 100.243L31.3516 100.56C31.3779 100.999 31.4658 101.421 31.5713 101.825L30.7539 102.476C30.543 102.625 30.4727 102.88 30.5518 103.126C30.6309 103.381 30.8594 103.53 31.123 103.513L32.1689 103.46C32.3535 103.856 32.5645 104.233 32.8018 104.576L32.2393 105.473C32.0986 105.692 32.125 105.956 32.292 106.141C32.4766 106.36 32.7227 106.422 32.9688 106.316L33.9268 105.921C34.2344 106.22 34.5684 106.492 34.9111 106.738L34.6914 107.758C34.6475 108.022 34.7354 108.259 34.9639 108.391C35.21 108.523 35.4648 108.496 35.6582 108.312L36.4229 107.617C36.8184 107.784 37.2139 107.942 37.627 108.057L37.7764 109.094C37.8115 109.357 37.9873 109.551 38.251 109.595C38.5146 109.63 38.752 109.516 38.8574 109.287L39.3496 108.347C39.5693 108.364 39.7715 108.382 40 108.382ZM42.2939 98.9952C41.8633 97.8614 40.9844 97.2461 39.9473 97.2461C39.7979 97.2461 39.6396 97.2637 39.3672 97.3252L36.9941 93.2471C37.8994 92.8252 38.9102 92.5879 39.9912 92.5879C43.709 92.5879 46.627 95.3829 46.9609 98.9952H42.2939ZM32.9951 99.6983C32.9951 97.3428 34.0762 95.2774 35.79 93.9854L38.1807 98.0723C37.7148 98.5821 37.4951 99.1446 37.4951 99.7247C37.4951 100.278 37.6973 100.806 38.1807 101.342L35.7197 105.358C34.0498 104.066 32.9951 102.019 32.9951 99.6983ZM38.8926 99.7159C38.8926 99.1182 39.3936 98.6612 39.9561 98.6612C40.5449 98.6612 41.0283 99.1182 41.0283 99.7159C41.0283 100.296 40.5449 100.779 39.9561 100.779C39.3936 100.779 38.8926 100.296 38.8926 99.7159ZM39.9912 106.8C38.8838 106.8 37.8467 106.554 36.9238 106.106L39.3584 102.115C39.6221 102.168 39.7979 102.186 39.9473 102.186C40.9932 102.186 41.8633 101.553 42.2939 100.393H46.9609C46.627 104.005 43.709 106.8 39.9912 106.8Z" fill="#3F88C5"/>
<circle cx="100" cy="100" r="19.25" stroke="#F49D37" stroke-width="1.5"/>
<path d="M100 108.382C100.211 108.382 100.413 108.364 100.633 108.347L101.125 109.278C101.23 109.516 101.468 109.63 101.74 109.595C101.995 109.551 102.171 109.357 102.206 109.094L102.355 108.048C102.769 107.942 103.173 107.784 103.56 107.617L104.333 108.312C104.518 108.496 104.772 108.523 105.027 108.391C105.247 108.259 105.335 108.022 105.291 107.758L105.071 106.738C105.414 106.492 105.748 106.22 106.064 105.921L107.014 106.316C107.269 106.422 107.506 106.36 107.699 106.141C107.857 105.956 107.884 105.692 107.743 105.464L107.189 104.576C107.427 104.233 107.629 103.856 107.813 103.46L108.868 103.513C109.123 103.53 109.352 103.381 109.439 103.135C109.527 102.889 109.439 102.634 109.237 102.476L108.42 101.825C108.525 101.421 108.604 100.999 108.64 100.56L109.633 100.243C109.888 100.155 110.046 99.9532 110.046 99.6895C110.046 99.4258 109.888 99.2237 109.633 99.1358L108.64 98.8194C108.604 98.3799 108.517 97.9668 108.42 97.5538L109.237 96.9034C109.439 96.754 109.519 96.5079 109.439 96.2618C109.352 96.0069 109.123 95.8575 108.868 95.8751L107.813 95.9102C107.629 95.5235 107.427 95.1543 107.189 94.8028L107.743 93.9063C107.875 93.6954 107.857 93.4317 107.699 93.2471C107.506 93.0274 107.269 92.9659 107.014 93.0713L106.056 93.4581C105.748 93.168 105.414 92.8868 105.071 92.6495L105.291 91.6299C105.335 91.3575 105.247 91.1202 105.019 90.9971C104.772 90.8653 104.518 90.8829 104.333 91.0762L103.56 91.7618C103.173 91.586 102.769 91.4454 102.355 91.3311L102.206 90.3028C102.171 90.0391 101.995 89.8458 101.74 89.793C101.468 89.7579 101.239 89.8721 101.125 90.0918L100.633 91.0323C100.413 91.0147 100.211 91.0059 100 91.0059C99.7715 91.0059 99.5693 91.0147 99.3496 91.0323L98.8574 90.0918C98.752 89.8721 98.5146 89.7579 98.2422 89.8018C97.9873 89.8458 97.8115 90.0391 97.7764 90.3028L97.627 91.3311C97.2227 91.4454 96.8184 91.586 96.4229 91.7618L95.6582 91.0762C95.4648 90.8917 95.21 90.8653 94.9639 90.9971C94.7441 91.1202 94.6475 91.3575 94.6914 91.6299L94.9111 92.6495C94.5684 92.8868 94.2344 93.168 93.9268 93.4581L92.9688 93.0713C92.7227 92.9659 92.4766 93.0274 92.292 93.2471C92.125 93.4317 92.1074 93.6954 92.2393 93.9063L92.8018 94.8028C92.5645 95.1543 92.3623 95.5235 92.1689 95.9102L91.123 95.8751C90.8594 95.8575 90.6309 96.0069 90.5518 96.2618C90.4639 96.5079 90.5342 96.754 90.7451 96.9034L91.5713 97.5538C91.4658 97.9668 91.3779 98.3799 91.3516 98.8194L90.3584 99.1358C90.0947 99.2237 89.9453 99.417 89.9453 99.6895C89.9453 99.9532 90.0947 100.155 90.3584 100.243L91.3516 100.56C91.3779 100.999 91.4658 101.421 91.5713 101.825L90.7539 102.476C90.543 102.625 90.4727 102.88 90.5518 103.126C90.6309 103.381 90.8594 103.53 91.123 103.513L92.1689 103.46C92.3535 103.856 92.5645 104.233 92.8018 104.576L92.2393 105.473C92.0986 105.692 92.125 105.956 92.292 106.141C92.4766 106.36 92.7227 106.422 92.9688 106.316L93.9268 105.921C94.2344 106.22 94.5684 106.492 94.9111 106.738L94.6914 107.758C94.6475 108.022 94.7354 108.259 94.9639 108.391C95.21 108.523 95.4648 108.496 95.6582 108.312L96.4229 107.617C96.8184 107.784 97.2139 107.942 97.627 108.057L97.7764 109.094C97.8115 109.357 97.9873 109.551 98.251 109.595C98.5146 109.63 98.752 109.516 98.8574 109.287L99.3496 108.347C99.5693 108.364 99.7715 108.382 100 108.382ZM102.294 98.9952C101.863 97.8614 100.984 97.2461 99.9473 97.2461C99.7979 97.2461 99.6396 97.2637 99.3672 97.3252L96.9941 93.2471C97.8994 92.8252 98.9102 92.5879 99.9912 92.5879C103.709 92.5879 106.627 95.3829 106.961 98.9952H102.294ZM92.9951 99.6983C92.9951 97.3428 94.0762 95.2774 95.79 93.9854L98.1807 98.0723C97.7148 98.5821 97.4951 99.1446 97.4951 99.7247C97.4951 100.278 97.6973 100.806 98.1807 101.342L95.7197 105.358C94.0498 104.066 92.9951 102.019 92.9951 99.6983ZM98.8926 99.7159C98.8926 99.1182 99.3936 98.6612 99.9561 98.6612C100.545 98.6612 101.028 99.1182 101.028 99.7159C101.028 100.296 100.545 100.779 99.9561 100.779C99.3936 100.779 98.8926 100.296 98.8926 99.7159ZM99.9912 106.8C98.8838 106.8 97.8467 106.554 96.9238 106.106L99.3584 102.115C99.6221 102.168 99.7979 102.186 99.9473 102.186C100.993 102.186 101.863 101.553 102.294 100.393H106.961C106.627 104.005 103.709 106.8 99.9912 106.8Z" fill="#F49D37"/>
<circle cx="40" cy="160" r="19.25" stroke="#3F88C5" stroke-width="1.5"/>
<path d="M40.3867 166.94C40.5537 167.336 40.8965 167.6 41.3008 167.6C41.96 167.6 42.417 167.116 42.417 166.519C42.417 166.193 42.2324 165.78 42.1094 165.473L39.7363 159.637L42.1094 153.801C42.2324 153.493 42.417 153.071 42.417 152.755C42.417 152.157 41.96 151.674 41.3008 151.674C40.8965 151.674 40.5537 151.938 40.3867 152.324L37.9697 158.257C37.7764 158.723 37.583 159.188 37.583 159.637C37.583 160.076 37.7764 160.542 37.9697 161.017L40.3867 166.94Z" fill="#3F88C5"/>
<circle cx="100" cy="160" r="19.25" stroke="#F49D37" stroke-width="1.5"/>
<path d="M100.387 166.94C100.554 167.336 100.896 167.6 101.301 167.6C101.96 167.6 102.417 167.116 102.417 166.519C102.417 166.193 102.232 165.78 102.109 165.473L99.7363 159.637L102.109 153.801C102.232 153.493 102.417 153.071 102.417 152.755C102.417 152.157 101.96 151.674 101.301 151.674C100.896 151.674 100.554 151.938 100.387 152.324L97.9697 158.257C97.7764 158.723 97.583 159.188 97.583 159.637C97.583 160.076 97.7764 160.542 97.9697 161.017L100.387 166.94Z" fill="#F49D37"/>
<circle cx="40" cy="220" r="19.25" stroke="#3F88C5" stroke-width="1.5"/>
<path d="M46.0118 215.497L46.9698 214.548C47.4444 214.073 47.462 213.555 47.0313 213.115L46.6885 212.764C46.2579 212.333 45.7217 212.377 45.2559 212.843L44.2979 213.783L46.0118 215.497ZM35.2452 226.246L45.168 216.323L43.4629 214.627L33.5401 224.532L32.6788 226.606C32.5821 226.87 32.8545 227.16 33.1182 227.063L35.2452 226.246Z" fill="#3F88C5"/>
<circle cx="100" cy="220" r="19.25" stroke="#F49D37" stroke-width="1.5"/>
<path d="M106.012 215.497L106.97 214.548C107.444 214.073 107.462 213.555 107.031 213.115L106.689 212.764C106.258 212.333 105.722 212.377 105.256 212.843L104.298 213.783L106.012 215.497ZM95.2452 226.246L105.168 216.323L103.463 214.627L93.5401 224.532L92.6788 226.606C92.5821 226.87 92.8545 227.16 93.1182 227.063L95.2452 226.246Z" fill="#F49D37"/>
<circle cx="40" cy="280" r="19.25" stroke="#D72638" stroke-width="1.5"/>
<path d="M35.9658 288.769H44.043C45.3965 288.769 46.2666 287.951 46.3369 286.598L46.9258 273.941H47.8926C48.3408 273.941 48.6836 273.59 48.6836 273.15C48.6836 272.711 48.332 272.377 47.8926 272.377H43.9902V271.059C43.9902 269.705 43.1289 268.914 41.6611 268.914H38.3213C36.8535 268.914 35.9922 269.705 35.9922 271.059V272.377H32.1074C31.668 272.377 31.3164 272.72 31.3164 273.15C31.3164 273.599 31.668 273.941 32.1074 273.941H33.0742L33.6631 286.598C33.7334 287.96 34.5947 288.769 35.9658 288.769ZM37.6357 271.138C37.6357 270.689 37.9521 270.399 38.4355 270.399H41.5469C42.0303 270.399 42.3467 270.689 42.3467 271.138V272.377H37.6357V271.138ZM36.1416 287.195C35.6582 287.195 35.3066 286.835 35.2803 286.316L34.6914 273.941H45.2822L44.7109 286.316C44.6934 286.844 44.3506 287.195 43.8496 287.195H36.1416ZM37.4072 285.78C37.7852 285.78 38.0225 285.543 38.0137 285.191L37.75 275.998C37.7412 275.646 37.4951 275.418 37.1348 275.418C36.7656 275.418 36.5283 275.655 36.5371 276.007L36.8008 285.2C36.8096 285.552 37.0557 285.78 37.4072 285.78ZM40 285.78C40.3691 285.78 40.624 285.552 40.624 285.2V276.007C40.624 275.655 40.3691 275.418 40 275.418C39.6309 275.418 39.3848 275.655 39.3848 276.007V285.2C39.3848 285.552 39.6309 285.78 40 285.78ZM42.5928 285.789C42.9443 285.789 43.1904 285.552 43.1992 285.2L43.4629 276.007C43.4717 275.655 43.2344 275.427 42.8652 275.427C42.5049 275.427 42.2588 275.655 42.25 276.007L41.9863 285.2C41.9775 285.543 42.2148 285.789 42.5928 285.789Z" fill="#D72638"/>
<circle cx="100" cy="280" r="19.25" stroke="#F49D37" stroke-width="1.5"/>
<path d="M95.9658 288.769H104.043C105.396 288.769 106.267 287.951 106.337 286.598L106.926 273.941H107.893C108.341 273.941 108.684 273.59 108.684 273.15C108.684 272.711 108.332 272.377 107.893 272.377H103.99V271.059C103.99 269.705 103.129 268.914 101.661 268.914H98.3213C96.8535 268.914 95.9922 269.705 95.9922 271.059V272.377H92.1074C91.668 272.377 91.3164 272.72 91.3164 273.15C91.3164 273.599 91.668 273.941 92.1074 273.941H93.0742L93.6631 286.598C93.7334 287.96 94.5947 288.769 95.9658 288.769ZM97.6357 271.138C97.6357 270.689 97.9521 270.399 98.4355 270.399H101.547C102.03 270.399 102.347 270.689 102.347 271.138V272.377H97.6357V271.138ZM96.1416 287.195C95.6582 287.195 95.3066 286.835 95.2803 286.316L94.6914 273.941H105.282L104.711 286.316C104.693 286.844 104.351 287.195 103.85 287.195H96.1416ZM97.4072 285.78C97.7852 285.78 98.0225 285.543 98.0137 285.191L97.75 275.998C97.7412 275.646 97.4951 275.418 97.1348 275.418C96.7656 275.418 96.5283 275.655 96.5371 276.007L96.8008 285.2C96.8096 285.552 97.0557 285.78 97.4072 285.78ZM100 285.78C100.369 285.78 100.624 285.552 100.624 285.2V276.007C100.624 275.655 100.369 275.418 100 275.418C99.6309 275.418 99.3848 275.655 99.3848 276.007V285.2C99.3848 285.552 99.6309 285.78 100 285.78ZM102.593 285.789C102.944 285.789 103.19 285.552 103.199 285.2L103.463 276.007C103.472 275.655 103.234 275.427 102.865 275.427C102.505 275.427 102.259 275.655 102.25 276.007L101.986 285.2C101.978 285.543 102.215 285.789 102.593 285.789Z" fill="#F49D37"/>
<circle cx="40" cy="340" r="19.25" stroke="#3F88C5" stroke-width="1.5"/>
<path d="M33.6367 340.656H38.998V346.018C38.998 346.562 39.4463 347.02 40 347.02C40.5537 347.02 41.002 346.562 41.002 346.018V340.656H46.3633C46.9082 340.656 47.3652 340.208 47.3652 339.654C47.3652 339.101 46.9082 338.652 46.3633 338.652H41.002V333.291C41.002 332.746 40.5537 332.289 40 332.289C39.4463 332.289 38.998 332.746 38.998 333.291V338.652H33.6367C33.0918 338.652 32.6348 339.101 32.6348 339.654C32.6348 340.208 33.0918 340.656 33.6367 340.656Z" fill="#3F88C5"/>
<circle cx="100" cy="340" r="19.25" stroke="#F49D37" stroke-width="1.5"/>
<path d="M93.6367 340.656H98.998V346.018C98.998 346.562 99.4463 347.02 100 347.02C100.554 347.02 101.002 346.562 101.002 346.018V340.656H106.363C106.908 340.656 107.365 340.208 107.365 339.654C107.365 339.101 106.908 338.652 106.363 338.652H101.002V333.291C101.002 332.746 100.554 332.289 100 332.289C99.4463 332.289 98.998 332.746 98.998 333.291V338.652H93.6367C93.0918 338.652 92.6348 339.101 92.6348 339.654C92.6348 340.208 93.0918 340.656 93.6367 340.656Z" fill="#F49D37"/>
<rect x="0.5" y="0.5" width="139" height="389" rx="4.5" stroke="#7B61FF" stroke-dasharray="10 5"/>
</svg>
