<svg width="40" height="40" viewBox="0 0 40 40" fill="none" xmlns="http://www.w3.org/2000/svg">
<circle cx="20" cy="20" r="19.25" stroke="#F49D37" stroke-width="1.5"/>
<path d="M15.9658 28.7686H24.043C25.3965 28.7686 26.2666 27.9512 26.3369 26.5977L26.9258 13.9414H27.8926C28.3408 13.9414 28.6836 13.5898 28.6836 13.1504C28.6836 12.7109 28.332 12.377 27.8926 12.377H23.9902V11.0586C23.9902 9.70508 23.1289 8.91406 21.6611 8.91406H18.3213C16.8535 8.91406 15.9922 9.70508 15.9922 11.0586V12.377H12.1074C11.668 12.377 11.3164 12.7197 11.3164 13.1504C11.3164 13.5986 11.668 13.9414 12.1074 13.9414H13.0742L13.6631 26.5977C13.7334 27.96 14.5947 28.7686 15.9658 28.7686ZM17.6357 11.1377C17.6357 10.6895 17.9521 10.3994 18.4355 10.3994H21.5469C22.0303 10.3994 22.3467 10.6895 22.3467 11.1377V12.377H17.6357V11.1377ZM16.1416 27.1953C15.6582 27.1953 15.3066 26.835 15.2803 26.3164L14.6914 13.9414H25.2822L24.7109 26.3164C24.6934 26.8438 24.3506 27.1953 23.8496 27.1953H16.1416ZM17.4072 25.7803C17.7852 25.7803 18.0225 25.543 18.0137 25.1914L17.75 15.998C17.7412 15.6465 17.4951 15.418 17.1348 15.418C16.7656 15.418 16.5283 15.6553 16.5371 16.0068L16.8008 25.2002C16.8096 25.5518 17.0557 25.7803 17.4072 25.7803ZM20 25.7803C20.3691 25.7803 20.624 25.5518 20.624 25.2002V16.0068C20.624 15.6553 20.3691 15.418 20 15.418C19.6309 15.418 19.3848 15.6553 19.3848 16.0068V25.2002C19.3848 25.5518 19.6309 25.7803 20 25.7803ZM22.5928 25.7891C22.9443 25.7891 23.1904 25.5518 23.1992 25.2002L23.4629 16.0068C23.4717 15.6553 23.2344 15.4268 22.8652 15.4268C22.5049 15.4268 22.2588 15.6553 22.25 16.0068L21.9863 25.2002C21.9775 25.543 22.2148 25.7891 22.5928 25.7891Z" fill="#F49D37"/>
</svg>
