<svg width="40" height="40" viewBox="0 0 40 40" fill="none" xmlns="http://www.w3.org/2000/svg">
<circle cx="20" cy="20" r="19.25" stroke="#3F88C5" stroke-width="1.5"/>
<path d="M13.6367 20.6562H18.998V26.0176C18.998 26.5625 19.4463 27.0195 20 27.0195C20.5537 27.0195 21.002 26.5625 21.002 26.0176V20.6562H26.3633C26.9082 20.6562 27.3652 20.208 27.3652 19.6543C27.3652 19.1006 26.9082 18.6523 26.3633 18.6523H21.002V13.291C21.002 12.7461 20.5537 12.2891 20 12.2891C19.4463 12.2891 18.998 12.7461 18.998 13.291V18.6523H13.6367C13.0918 18.6523 12.6348 19.1006 12.6348 19.6543C12.6348 20.208 13.0918 20.6562 13.6367 20.6562Z" fill="#3F88C5"/>
</svg>
