<svg width="40" height="40" viewBox="0 0 40 40" fill="none" xmlns="http://www.w3.org/2000/svg">
<circle cx="20" cy="20" r="19.25" stroke="#F49D37" stroke-width="1.5"/>
<path d="M20.3867 26.9404C20.5537 27.3359 20.8965 27.5996 21.3008 27.5996C21.96 27.5996 22.417 27.1162 22.417 26.5186C22.417 26.1934 22.2324 25.7803 22.1094 25.4727L19.7363 19.6367L22.1094 13.8008C22.2324 13.4932 22.417 13.0713 22.417 12.7549C22.417 12.1572 21.96 11.6738 21.3008 11.6738C20.8965 11.6738 20.5537 11.9375 20.3867 12.3242L17.9697 18.2568C17.7764 18.7227 17.583 19.1885 17.583 19.6367C17.583 20.0762 17.7764 20.542 17.9697 21.0166L20.3867 26.9404Z" fill="#F49D37"/>
</svg>
