<svg width="5" height="17" viewBox="0 0 5 17" fill="none" xmlns="http://www.w3.org/2000/svg">
<path d="M2.28316 15.9404L4.55798 10.0166C4.74823 9.54199 4.92195 9.07617 4.92195 8.63672C4.92195 8.18848 4.74823 7.72266 4.55798 7.25684L2.28316 1.32422C2.12599 0.9375 1.80338 0.673828 1.42287 0.673828C0.802461 0.673828 0.372314 1.15723 0.372314 1.75488C0.372314 2.07129 0.546028 2.49316 0.661837 2.80078L2.89529 8.63672L0.661837 14.4727C0.546028 14.7803 0.372314 15.1934 0.372314 15.5186C0.372314 16.1162 0.802461 16.5996 1.42287 16.5996C1.80338 16.5996 2.12599 16.3359 2.28316 15.9404Z" fill="#071013"/>
</svg>
