<svg width="40" height="40" viewBox="0 0 40 40" fill="none" xmlns="http://www.w3.org/2000/svg">
<circle cx="20" cy="20" r="19.25" stroke="#F49D37" stroke-width="1.5"/>
<path d="M11.7119 13.4844H28.2705C28.7188 13.4844 29.0791 13.1152 29.0791 12.6758C29.0791 12.2188 28.7188 11.8672 28.2705 11.8672H11.7119C11.2637 11.8672 10.9121 12.2275 10.9121 12.6758C10.9121 13.1152 11.2637 13.4844 11.7119 13.4844ZM11.7119 18.0898H28.2705C28.7188 18.0898 29.0791 17.7207 29.0791 17.2812C29.0791 16.8242 28.7188 16.4727 28.2705 16.4727H11.7119C11.2637 16.4727 10.9121 16.833 10.9121 17.2812C10.9121 17.7207 11.2637 18.0898 11.7119 18.0898ZM11.7119 22.6953H28.2705C28.7188 22.6953 29.0791 22.3262 29.0791 21.8867C29.0791 21.4385 28.7188 21.0781 28.2705 21.0781H11.7119C11.2637 21.0781 10.9121 21.4385 10.9121 21.8867C10.9121 22.3262 11.2637 22.6953 11.7119 22.6953ZM11.7119 27.3008H20.9404C21.3887 27.3008 21.749 26.9316 21.749 26.4922C21.749 26.0439 21.3887 25.6836 20.9404 25.6836H11.7119C11.2637 25.6836 10.9121 26.0439 10.9121 26.4922C10.9121 26.9316 11.2637 27.3008 11.7119 27.3008Z" fill="#F49D37"/>
</svg>
