<svg width="40" height="40" viewBox="0 0 40 40" fill="none" xmlns="http://www.w3.org/2000/svg">
<circle cx="20" cy="20" r="19.25" stroke="#F49D37" stroke-width="1.5"/>
<path d="M20 28.3819C20.2109 28.3819 20.4131 28.3643 20.6328 28.3467L21.125 29.2784C21.2305 29.5157 21.4678 29.6299 21.7402 29.5948C21.9951 29.5508 22.1709 29.3575 22.2061 29.0938L22.3555 28.0479C22.7686 27.9424 23.1729 27.7842 23.5596 27.6172L24.333 28.3116C24.5176 28.4961 24.7725 28.5225 25.0273 28.3907C25.2471 28.2588 25.335 28.0215 25.291 27.7579L25.0713 26.7383C25.4141 26.4922 25.748 26.2198 26.0645 25.9209L27.0137 26.3165C27.2686 26.4219 27.5059 26.3604 27.6992 26.1407C27.8574 25.9561 27.8838 25.6924 27.7432 25.4639L27.1895 24.5762C27.4268 24.2334 27.6289 23.8555 27.8135 23.46L28.8682 23.5127C29.123 23.5303 29.3516 23.3809 29.4395 23.1348C29.5273 22.8887 29.4395 22.6338 29.2373 22.4756L28.4199 21.8252C28.5254 21.4209 28.6045 20.9991 28.6396 20.5596L29.6328 20.2432C29.8877 20.1553 30.0459 19.9532 30.0459 19.6895C30.0459 19.4258 29.8877 19.2237 29.6328 19.1358L28.6396 18.8194C28.6045 18.3799 28.5166 17.9668 28.4199 17.5538L29.2373 16.9034C29.4395 16.754 29.5186 16.5079 29.4395 16.2618C29.3516 16.0069 29.123 15.8575 28.8682 15.8751L27.8135 15.9102C27.6289 15.5235 27.4268 15.1543 27.1895 14.8028L27.7432 13.9063C27.875 13.6954 27.8574 13.4317 27.6992 13.2471C27.5059 13.0274 27.2686 12.9659 27.0137 13.0713L26.0557 13.4581C25.748 13.168 25.4141 12.8868 25.0713 12.6495L25.291 11.6299C25.335 11.3575 25.2471 11.1202 25.0186 10.9971C24.7725 10.8653 24.5176 10.8829 24.333 11.0762L23.5596 11.7618C23.1729 11.586 22.7686 11.4454 22.3555 11.3311L22.2061 10.3028C22.1709 10.0391 21.9951 9.84576 21.7402 9.79302C21.4678 9.75786 21.2393 9.87212 21.125 10.0918L20.6328 11.0323C20.4131 11.0147 20.2109 11.0059 20 11.0059C19.7715 11.0059 19.5693 11.0147 19.3496 11.0323L18.8574 10.0918C18.752 9.87212 18.5146 9.75786 18.2422 9.80181C17.9873 9.84576 17.8115 10.0391 17.7764 10.3028L17.627 11.3311C17.2227 11.4454 16.8184 11.586 16.4229 11.7618L15.6582 11.0762C15.4648 10.8917 15.21 10.8653 14.9639 10.9971C14.7441 11.1202 14.6475 11.3575 14.6914 11.6299L14.9111 12.6495C14.5684 12.8868 14.2344 13.168 13.9268 13.4581L12.9688 13.0713C12.7227 12.9659 12.4766 13.0274 12.292 13.2471C12.125 13.4317 12.1074 13.6954 12.2393 13.9063L12.8018 14.8028C12.5645 15.1543 12.3623 15.5235 12.1689 15.9102L11.123 15.8751C10.8594 15.8575 10.6309 16.0069 10.5518 16.2618C10.4639 16.5079 10.5342 16.754 10.7451 16.9034L11.5713 17.5538C11.4658 17.9668 11.3779 18.3799 11.3516 18.8194L10.3584 19.1358C10.0947 19.2237 9.94531 19.417 9.94531 19.6895C9.94531 19.9532 10.0947 20.1553 10.3584 20.2432L11.3516 20.5596C11.3779 20.9991 11.4658 21.4209 11.5713 21.8252L10.7539 22.4756C10.543 22.6251 10.4727 22.8799 10.5518 23.126C10.6309 23.3809 10.8594 23.5303 11.123 23.5127L12.1689 23.46C12.3535 23.8555 12.5645 24.2334 12.8018 24.5762L12.2393 25.4727C12.0986 25.6924 12.125 25.9561 12.292 26.1407C12.4766 26.3604 12.7227 26.4219 12.9688 26.3165L13.9268 25.9209C14.2344 26.2198 14.5684 26.4922 14.9111 26.7383L14.6914 27.7579C14.6475 28.0215 14.7354 28.2588 14.9639 28.3907C15.21 28.5225 15.4648 28.4961 15.6582 28.3116L16.4229 27.6172C16.8184 27.7842 17.2139 27.9424 17.627 28.0567L17.7764 29.0938C17.8115 29.3575 17.9873 29.5508 18.251 29.5948C18.5146 29.6299 18.752 29.5157 18.8574 29.2872L19.3496 28.3467C19.5693 28.3643 19.7715 28.3819 20 28.3819ZM22.2939 18.9952C21.8633 17.8614 20.9844 17.2461 19.9473 17.2461C19.7979 17.2461 19.6396 17.2637 19.3672 17.3252L16.9941 13.2471C17.8994 12.8252 18.9102 12.5879 19.9912 12.5879C23.709 12.5879 26.627 15.3829 26.9609 18.9952H22.2939ZM12.9951 19.6983C12.9951 17.3428 14.0762 15.2774 15.79 13.9854L18.1807 18.0723C17.7148 18.5821 17.4951 19.1446 17.4951 19.7247C17.4951 20.2784 17.6973 20.8057 18.1807 21.3418L15.7197 25.3584C14.0498 24.0665 12.9951 22.0186 12.9951 19.6983ZM18.8926 19.7159C18.8926 19.1182 19.3936 18.6612 19.9561 18.6612C20.5449 18.6612 21.0283 19.1182 21.0283 19.7159C21.0283 20.2959 20.5449 20.7793 19.9561 20.7793C19.3936 20.7793 18.8926 20.2959 18.8926 19.7159ZM19.9912 26.7999C18.8838 26.7999 17.8467 26.5538 16.9238 26.1055L19.3584 22.1153C19.6221 22.168 19.7979 22.1856 19.9473 22.1856C20.9932 22.1856 21.8633 21.5528 22.2939 20.3926H26.9609C26.627 24.0049 23.709 26.7999 19.9912 26.7999Z" fill="#F49D37"/>
</svg>
